# xmcd CD database file
# Generated: Fri May 31 22:20:30 2002 by KSCD
# 
# Track frame offsets:
#       150
#       12207
#       23820
#       33367
#       48557
#       58590
#       74045
#       85735
#       99490
#       110477
#       120310
#       129100
#       138452
#       149767
#       162085
#       170867
#       180770
#       193775
#       207135
#       219927
#       227470
#       239377
#       247590
#       259212
#       270382
#       283097
#       293190
#
# Disc length: 4105 seconds
#
# Revision: 1
# Processed by: cddbd v1.4PL0 Copyright (c) Steve Scherf et al.
# Submitted via: Kscd 1.3.2
#
DISCID=7f10071b
DTITLE=Bill Clifton - Around The World To Poor Valley 8
DYEAR=1900
DGENRE=
TTITLE0=Silver Bell
TTITLE1=Darling Nellie Gray
TTITLE2=Plumtree Cakewalk
TTITLE3=Gray Dawn
TTITLE4=Liberty
TTITLE5=This Land Is Your Land
TTITLE6=Under The Double Eagle
TTITLE7=Mist Over Poor Valley
TTITLE8=Celebration
TTITLE9=Tea At Half-Five
TTITLE10=Wildwood Flower
TTITLE11=Gathering Up The Shells From The Sea-Shore
TTITLE12=Barefoot Days
TTITLE13=Beautiful
TTITLE14=Where The Rainbow Finds Its End
TTITLE15=Mississippi Sawyer
TTITLE16=Somebody's Waiting For You
TTITLE17=First Ole Restless Wind
TTITLE18=Kitty And I
TTITLE19=My Blue Ridge Mountain Home
TTITLE20=Be On Time
TTITLE21=Come Be My Rainbow
TTITLE22=Sunshine And Rain
TTITLE23=Winkin' At Me
TTITLE24=Southern Moon
TTITLE25=Silver Dew On The Bluegrass Tonight
TTITLE26=Waltzing With Bears
EXTD=null
EXTT0=null
EXTT1=null
EXTT2=null
EXTT3=null
EXTT4=null
EXTT5=null
EXTT6=null
EXTT7=null
EXTT8=null
EXTT9=null
EXTT10=null
EXTT11=null
EXTT12=null
EXTT13=null
EXTT14=null
EXTT15=null
EXTT16=null
EXTT17=null
EXTT18=null
EXTT19=null
EXTT20=null
EXTT21=null
EXTT22=null
EXTT23=null
EXTT24=null
EXTT25=null
EXTT26=null
PLAYORDER=
